<svg preserveAspectRatio="none" width="100%" height="100%" overflow="visible" style="display: block;" viewBox="0 0 76 61" fill="none" xmlns="http://www.w3.org/2000/svg">
<path id="Vector" d="M0 56.1168C0 57.9117 0.506971 59.5812 1.36492 61C2.72984 55.3448 6.60361 50.7387 11.6798 48.4159L12.8497 27.0224C13.3892 17.1109 21.4682 9.3572 31.2436 9.3572H52.9653C60.5959 9.3572 66.7835 15.6393 66.7835 23.3864C66.7835 31.1335 60.5959 37.4156 52.9653 37.4156H34.5389L36.8398 28.065H52.7704C55.2922 28.065 57.4891 26.0919 57.5671 23.5316C57.6451 20.9712 55.5522 18.7144 52.9653 18.7144H26.9994C22.1637 18.7144 18.1534 22.5088 17.8089 27.3985L16.431 46.9906C17.354 46.8454 18.2964 46.7662 19.2519 46.7662H52.9718C65.8541 46.7662 76.2989 35.9705 75.9935 22.8189C75.6945 10.0501 65.1131 0 52.5364 0H27.6363C12.3753 0 0 12.5643 0 28.0584V56.1168Z" fill="#42A7B5"/>
</svg>
