<svg preserveAspectRatio="none" width="100%" height="100%" overflow="visible" style="display: block;" viewBox="0 0 172 139" fill="none" xmlns="http://www.w3.org/2000/svg">
<g id="Group 1">
<path id="Vector" d="M0 127.873C0 131.963 1.14736 135.767 3.08903 139C6.17806 126.113 14.945 115.618 26.4332 110.325L29.081 61.5756C30.3019 38.9904 48.586 21.3222 70.7093 21.3222H119.869C137.138 21.3222 151.142 35.6372 151.142 53.2903C151.142 70.9435 137.138 85.2585 119.869 85.2585H78.1671L83.3743 63.9514H119.428C125.135 63.9514 130.107 59.4554 130.283 53.6212C130.46 47.7869 125.723 42.6443 119.869 42.6443H61.1039C50.1599 42.6443 41.084 51.2905 40.3044 62.4327L37.186 107.077C39.2748 106.746 41.4077 106.566 43.57 106.566H119.884C149.038 106.566 172.677 81.9655 171.985 51.9972C171.309 22.901 147.361 0 118.898 0H62.5454C28.0072 0 0 28.63 0 63.9364V127.873Z" fill="#42A7B5"/>
<g id="&#217;&#134;&#216;&#184;&#216;&#167;&#217;&#133; &#217;&#133;&#216;&#177;&#216;&#167;&#217;&#130;&#216;&#168;&#216;&#169; &#216;&#167;&#217;&#132;&#216;&#180;&#216;&#167;&#216;&#180;&#216;&#167;&#216;&#170;">
<path id="Vector_2" d="M148.364 130.08L148.844 129.6H149.308C149.692 129.6 150.006 129.584 150.252 129.552C150.508 129.52 150.71 129.467 150.86 129.392C151.02 129.307 151.126 129.205 151.18 129.088C151.244 128.96 151.276 128.805 151.276 128.624C151.276 128.464 151.26 128.261 151.228 128.016C151.206 127.76 151.158 127.429 151.084 127.024L150.812 125.536L152.556 125.248L152.796 126.736C152.849 127.024 152.892 127.344 152.924 127.696C152.956 128.048 152.972 128.357 152.972 128.624C152.972 129.787 152.684 130.64 152.108 131.184C151.542 131.728 150.609 132 149.308 132H148.364V130.08ZM151.276 123.968C150.998 123.968 150.769 123.883 150.588 123.712C150.417 123.541 150.332 123.269 150.332 122.896C150.332 122.523 150.417 122.251 150.588 122.08C150.769 121.909 150.998 121.824 151.276 121.824H151.596C151.873 121.824 152.097 121.909 152.268 122.08C152.449 122.251 152.54 122.523 152.54 122.896C152.54 123.269 152.449 123.541 152.268 123.712C152.097 123.883 151.873 123.968 151.596 123.968H151.276Z" fill="#42A7B5"/>
<path id="Vector_3" d="M148.357 132C147.983 132 147.626 131.957 147.285 131.872C146.954 131.776 146.639 131.605 146.341 131.36C145.658 131.787 144.687 132 143.429 132H136.661V130.08L137.141 129.6H137.861L138.261 128.912V120.16H140.181V124.256L139.989 126.128L140.117 126.192C140.661 125.627 141.242 125.221 141.861 124.976C142.479 124.72 143.162 124.592 143.909 124.592C145.167 124.592 146.111 124.939 146.741 125.632C147.37 126.315 147.685 127.269 147.685 128.496C147.685 128.901 147.647 129.253 147.573 129.552C147.839 129.584 148.101 129.6 148.357 129.6H148.837V131.52L148.357 132ZM143.429 129.6C143.941 129.6 144.362 129.584 144.693 129.552C145.034 129.509 145.306 129.445 145.509 129.36C145.722 129.264 145.871 129.136 145.957 128.976C146.042 128.816 146.085 128.608 146.085 128.352C146.085 127.893 145.935 127.552 145.637 127.328C145.338 127.104 144.842 126.992 144.149 126.992H143.669C143.189 126.992 142.767 127.013 142.405 127.056C142.042 127.088 141.722 127.157 141.445 127.264C141.167 127.371 140.917 127.52 140.693 127.712C140.469 127.904 140.255 128.155 140.053 128.464L139.365 129.504L139.413 129.6H143.429ZM143.269 123.312C142.991 123.312 142.762 123.227 142.581 123.056C142.41 122.885 142.325 122.613 142.325 122.24C142.325 121.867 142.41 121.595 142.581 121.424C142.762 121.253 142.991 121.168 143.269 121.168H143.589C143.866 121.168 144.09 121.253 144.261 121.424C144.442 121.595 144.533 121.867 144.533 122.24C144.533 122.613 144.442 122.885 144.261 123.056C144.09 123.227 143.866 123.312 143.589 123.312H143.269Z" fill="#42A7B5"/>
<path id="Vector_4" d="M136.644 132C135.567 132 134.767 131.744 134.244 131.232C133.721 130.72 133.46 129.888 133.46 128.736V120.16H135.38V128.416C135.38 128.896 135.476 129.216 135.668 129.376C135.86 129.525 136.191 129.6 136.66 129.6H137.14V131.52L136.66 132H136.644Z" fill="#42A7B5"/>
<path id="Vector_5" d="M123.296 133.056C123.296 130.389 124.47 129.056 126.816 129.056H130.32C130.278 128.427 130.08 127.936 129.728 127.584C129.387 127.232 128.955 127.056 128.432 127.056C127.899 127.056 127.494 127.189 127.216 127.456C126.95 127.712 126.768 128.043 126.672 128.448L124.928 127.888C125.024 127.269 125.19 126.752 125.424 126.336C125.67 125.92 125.952 125.589 126.272 125.344C126.603 125.099 126.95 124.923 127.312 124.816C127.686 124.709 128.048 124.656 128.4 124.656C129.488 124.656 130.347 125.072 130.976 125.904C131.616 126.725 131.936 127.899 131.936 129.424V131.456H126.816C126.496 131.456 126.23 131.483 126.016 131.536C125.814 131.579 125.654 131.659 125.536 131.776C125.419 131.893 125.334 132.053 125.28 132.256C125.238 132.469 125.216 132.736 125.216 133.056V136.864H123.296V133.056Z" fill="#42A7B5"/>
<path id="Vector_6" d="M112.528 131.104C112.283 131.435 111.974 131.669 111.6 131.808C111.238 131.936 110.763 132 110.176 132V130.08L110.656 129.6C111.051 129.6 111.339 129.541 111.52 129.424C111.702 129.307 111.851 129.099 111.968 128.8L112.416 127.696C112.555 127.355 112.71 127.035 112.88 126.736C113.051 126.437 113.254 126.176 113.488 125.952C113.723 125.728 113.984 125.552 114.272 125.424C114.571 125.296 114.912 125.232 115.296 125.232C116.299 125.232 117.051 125.627 117.552 126.416C118.064 127.205 118.32 128.299 118.32 129.696V130.16L116.8 132.416L112.528 131.104ZM113.408 128.88L116.624 129.856V129.696C116.624 129.056 116.47 128.555 116.16 128.192C115.851 127.829 115.43 127.648 114.896 127.648C114.555 127.648 114.256 127.739 114 127.92C113.755 128.101 113.568 128.389 113.44 128.784L113.408 128.88Z" fill="#42A7B5"/>
<path id="Vector_7" d="M104.103 133.44H104.743C105.713 133.44 106.423 133.243 106.871 132.848C107.329 132.453 107.553 131.797 107.543 130.88C107.543 130.635 107.527 130.379 107.495 130.112C107.463 129.835 107.42 129.541 107.367 129.232L107.031 127.104L108.775 126.832L109.015 128.32C109.057 128.555 109.089 128.779 109.111 128.992C109.143 129.205 109.169 129.408 109.191 129.6H110.663V131.52L110.183 132H109.191C109.009 133.184 108.54 134.117 107.783 134.8C107.036 135.493 106.028 135.84 104.759 135.84H104.103V133.44Z" fill="#42A7B5"/>
<path id="Vector_8" d="M102.179 120.16H104.099V132H102.179V120.16Z" fill="#42A7B5"/>
<path id="Vector_9" d="M93.02 130.08L93.5 129.6H96.604C96.9667 129.6 97.2973 129.579 97.596 129.536C97.9053 129.493 98.1613 129.419 98.364 129.312C98.5773 129.205 98.7427 129.061 98.86 128.88C98.9773 128.699 99.036 128.469 99.036 128.192V127.456H98.94C98.6307 128.299 97.9213 128.72 96.812 128.72C95.948 128.72 95.2707 128.496 94.78 128.048C94.3 127.589 94.06 126.96 94.06 126.16C94.06 125.605 94.14 125.093 94.3 124.624C94.4707 124.144 94.7 123.733 94.988 123.392C95.2867 123.04 95.6333 122.768 96.028 122.576C96.4333 122.373 96.8707 122.272 97.34 122.272C98.3853 122.272 99.196 122.709 99.772 123.584C100.359 124.459 100.652 125.675 100.652 127.232C100.652 128.203 100.567 128.997 100.396 129.616C100.225 130.235 99.9693 130.72 99.628 131.072C99.2973 131.424 98.876 131.669 98.364 131.808C97.8627 131.936 97.276 132 96.604 132H93.02V130.08ZM97.308 126.64C97.7133 126.64 98.0547 126.624 98.332 126.592C98.6093 126.549 98.8333 126.485 99.004 126.4C98.94 125.877 98.732 125.461 98.38 125.152C98.0387 124.832 97.6227 124.672 97.132 124.672C96.716 124.672 96.364 124.784 96.076 125.008C95.7987 125.221 95.66 125.499 95.66 125.84C95.66 126.128 95.7773 126.336 96.012 126.464C96.2467 126.581 96.5667 126.64 96.972 126.64H97.308ZM98.444 120.992C98.1667 120.992 97.9373 120.907 97.756 120.736C97.5853 120.565 97.5 120.293 97.5 119.92C97.5 119.547 97.5853 119.275 97.756 119.104C97.9373 118.933 98.1667 118.848 98.444 118.848H98.764C99.0413 118.848 99.2653 118.933 99.436 119.104C99.6173 119.275 99.708 119.547 99.708 119.92C99.708 120.293 99.6173 120.565 99.436 120.736C99.2653 120.907 99.0413 120.992 98.764 120.992H98.444ZM95.916 120.992C95.6387 120.992 95.4093 120.907 95.228 120.736C95.0573 120.565 94.972 120.293 94.972 119.92C94.972 119.547 95.0573 119.275 95.228 119.104C95.4093 118.933 95.6387 118.848 95.916 118.848H96.236C96.5133 118.848 96.7373 118.933 96.908 119.104C97.0893 119.275 97.18 119.547 97.18 119.92C97.18 120.293 97.0893 120.565 96.908 120.736C96.7373 120.907 96.5133 120.992 96.236 120.992H95.916Z" fill="#42A7B5"/>
<path id="Vector_10" d="M87.7387 130.08L88.2187 129.6H88.6987C89.5521 129.6 89.9787 129.227 89.9787 128.48V126.192H91.7387V128.48C91.7387 129.227 92.1121 129.6 92.8587 129.6H93.4987V131.52L93.0187 132C92.1654 132 91.5147 131.829 91.0667 131.488C90.6294 131.136 90.3361 130.587 90.1867 129.84H90.0907C89.9414 130.587 89.6854 131.136 89.3227 131.488C88.9601 131.829 88.4321 132 87.7387 132V130.08ZM90.6987 135.44C90.4214 135.44 90.1921 135.355 90.0107 135.184C89.8401 135.013 89.7547 134.741 89.7547 134.368C89.7547 133.995 89.8401 133.723 90.0107 133.552C90.1921 133.381 90.4214 133.296 90.6987 133.296H91.0187C91.2961 133.296 91.5201 133.381 91.6907 133.552C91.8721 133.723 91.9627 133.995 91.9627 134.368C91.9627 134.741 91.8721 135.013 91.6907 135.184C91.5201 135.355 91.2961 135.44 91.0187 135.44H90.6987Z" fill="#42A7B5"/>
<path id="Vector_11" d="M87.7344 132C86.7637 131.989 86.0544 131.755 85.6064 131.296C85.1584 130.827 84.9344 130.187 84.9344 129.376V129.296H84.8384C84.753 129.669 84.6517 129.984 84.5344 130.24C84.4277 130.496 84.289 130.704 84.1184 130.864C83.9477 131.013 83.745 131.125 83.5104 131.2C83.2757 131.264 82.9984 131.296 82.6784 131.296C81.9104 131.296 81.3344 131.093 80.9504 130.688C80.5664 130.272 80.3744 129.691 80.3744 128.944C80.3744 128.069 80.6144 127.36 81.0944 126.816C81.585 126.261 82.241 125.781 83.0624 125.376L84.8544 124.48V123.6H86.7744V128.736C86.7744 129.056 86.8437 129.28 86.9824 129.408C87.1317 129.536 87.3824 129.6 87.7344 129.6H88.2144V131.52L87.7344 132ZM83.2064 128.896C83.825 128.896 84.2517 128.837 84.4864 128.72C84.7317 128.603 84.8544 128.389 84.8544 128.08V126.16L83.6704 126.72C83.3824 126.859 83.1317 126.981 82.9184 127.088C82.7157 127.195 82.5397 127.307 82.3904 127.424C82.2517 127.531 82.145 127.643 82.0704 127.76C82.0064 127.877 81.9744 128.011 81.9744 128.16C81.9744 128.427 82.0597 128.619 82.2304 128.736C82.4117 128.843 82.737 128.896 83.2064 128.896ZM85.6704 122.32C85.393 122.32 85.1637 122.235 84.9824 122.064C84.8117 121.893 84.7264 121.621 84.7264 121.248C84.7264 120.875 84.8117 120.603 84.9824 120.432C85.1637 120.261 85.393 120.176 85.6704 120.176H85.9904C86.2677 120.176 86.4917 120.261 86.6624 120.432C86.8437 120.603 86.9344 120.875 86.9344 121.248C86.9344 121.621 86.8437 121.893 86.6624 122.064C86.4917 122.235 86.2677 122.32 85.9904 122.32H85.6704ZM83.1424 122.32C82.865 122.32 82.6357 122.235 82.4544 122.064C82.2837 121.893 82.1984 121.621 82.1984 121.248C82.1984 120.875 82.2837 120.603 82.4544 120.432C82.6357 120.261 82.865 120.176 83.1424 120.176H83.4624C83.7397 120.176 83.9637 120.261 84.1344 120.432C84.3157 120.603 84.4064 120.875 84.4064 121.248C84.4064 121.621 84.3157 121.893 84.1344 122.064C83.9637 122.235 83.7397 122.32 83.4624 122.32H83.1424Z" fill="#42A7B5"/>
<path id="Vector_12" d="M73.0694 120.16H74.9894V132H73.0694V120.16Z" fill="#42A7B5"/>
<path id="Vector_13" d="M67.0356 130.08L67.5156 129.6H68.2196C68.625 129.6 68.8916 129.525 69.0196 129.376C69.1583 129.216 69.2276 128.971 69.2276 128.64V120.16H71.1476V128.64C71.1476 129.781 70.9236 130.624 70.4756 131.168C70.0383 131.712 69.2863 131.989 68.2196 132H67.0356V130.08Z" fill="#42A7B5"/>
<path id="Vector_14" d="M53.4888 130.08L53.9688 129.6H53.9848C54.4861 129.6 54.8648 129.541 55.1208 129.424C55.3768 129.296 55.5794 129.077 55.7288 128.768L56.3528 127.472L57.9368 128.24L57.3768 129.424C57.6328 129.541 57.8941 129.637 58.1608 129.712C58.4274 129.787 58.6994 129.824 58.9768 129.824C59.4354 129.824 59.7661 129.728 59.9688 129.536C60.1714 129.333 60.2728 128.981 60.2728 128.48V127.472H62.0328V128.48C62.0328 128.928 62.0968 129.253 62.2248 129.456C62.3528 129.659 62.5874 129.76 62.9288 129.76H63.0888C63.3661 129.76 63.5848 129.659 63.7448 129.456C63.9154 129.253 64.0008 128.928 64.0008 128.48V126.832H65.7608V128.48C65.7608 129.227 66.1341 129.6 66.8808 129.6H67.5208V131.52L67.0408 132C66.2301 132 65.6114 131.84 65.1848 131.52C64.7688 131.189 64.5021 130.672 64.3848 129.968H64.2888C64.2248 130.736 64.0328 131.301 63.7128 131.664C63.3928 132.016 62.9661 132.192 62.4328 132.192C61.8674 132.192 61.4301 132.016 61.1208 131.664C60.8114 131.301 60.5981 130.736 60.4808 129.968H60.3848C60.2994 130.736 60.1074 131.301 59.8088 131.664C59.5208 132.016 59.1368 132.192 58.6568 132.192C58.3474 132.192 58.0381 132.133 57.7288 132.016C57.4301 131.909 57.0354 131.712 56.5448 131.424L56.2248 131.232C55.8941 131.541 55.5154 131.749 55.0888 131.856C54.6728 131.952 54.1394 132 53.4888 132V130.08ZM62.2568 126.192C61.9794 126.192 61.7501 126.107 61.5688 125.936C61.3981 125.765 61.3128 125.493 61.3128 125.12C61.3128 124.747 61.3981 124.475 61.5688 124.304C61.7501 124.133 61.9794 124.048 62.2568 124.048H62.5768C62.8541 124.048 63.0781 124.133 63.2488 124.304C63.4301 124.475 63.5208 124.747 63.5208 125.12C63.5208 125.493 63.4301 125.765 63.2488 125.936C63.0781 126.107 62.8541 126.192 62.5768 126.192H62.2568ZM59.7288 126.192C59.4514 126.192 59.2221 126.107 59.0408 125.936C58.8701 125.765 58.7848 125.493 58.7848 125.12C58.7848 124.747 58.8701 124.475 59.0408 124.304C59.2221 124.133 59.4514 124.048 59.7288 124.048H60.0488C60.3261 124.048 60.5501 124.133 60.7208 124.304C60.9021 124.475 60.9928 124.747 60.9928 125.12C60.9928 125.493 60.9021 125.765 60.7208 125.936C60.5501 126.107 60.3261 126.192 60.0488 126.192H59.7288ZM60.9928 123.856C60.7154 123.856 60.4861 123.771 60.3048 123.6C60.1341 123.429 60.0488 123.157 60.0488 122.784C60.0488 122.411 60.1341 122.139 60.3048 121.968C60.4861 121.797 60.7154 121.712 60.9928 121.712H61.3128C61.5901 121.712 61.8141 121.797 61.9848 121.968C62.1661 122.139 62.2568 122.411 62.2568 122.784C62.2568 123.157 62.1661 123.429 61.9848 123.6C61.8141 123.771 61.5901 123.856 61.3128 123.856H60.9928Z" fill="#42A7B5"/>
<path id="Vector_15" d="M53.4721 132C52.3948 132 51.5948 131.744 51.0721 131.232C50.5495 130.72 50.2881 129.888 50.2881 128.736V120.16H52.2081V128.416C52.2081 128.896 52.3041 129.216 52.4961 129.376C52.6881 129.525 53.0188 129.6 53.4881 129.6H53.9681V131.52L53.4881 132H53.4721Z" fill="#42A7B5"/>
<path id="Vector_16" d="M36.8325 130.08L37.3125 129.6H37.3285C37.8405 129.6 38.2192 129.541 38.4645 129.424C38.7205 129.296 38.9232 129.077 39.0725 128.768L39.6965 127.472L41.2805 128.24L40.7205 129.408C40.9765 129.525 41.2378 129.627 41.5045 129.712C41.7712 129.787 42.0432 129.824 42.3205 129.824C42.7792 129.824 43.1098 129.728 43.3125 129.536C43.5152 129.333 43.6165 128.981 43.6165 128.48V127.472H45.3765V128.48C45.3765 128.928 45.4512 129.253 45.6005 129.456C45.7605 129.659 45.9738 129.76 46.2405 129.76H46.4005C46.6245 129.76 46.8058 129.68 46.9445 129.52C47.0832 129.349 47.1525 129.083 47.1525 128.72C47.1525 128.571 47.1365 128.384 47.1045 128.16C47.0725 127.925 47.0298 127.643 46.9765 127.312L46.8325 126.496L48.5765 126.208L48.7045 127.024C48.7578 127.333 48.7952 127.627 48.8165 127.904C48.8378 128.171 48.8485 128.443 48.8485 128.72C48.8485 129.915 48.6405 130.795 48.2245 131.36C47.8192 131.915 47.1845 132.192 46.3205 132.192C45.5632 132.192 44.9925 132.011 44.6085 131.648C44.2245 131.285 43.9632 130.725 43.8245 129.968H43.7285C43.6432 130.736 43.4512 131.301 43.1525 131.664C42.8645 132.016 42.4805 132.192 42.0005 132.192C41.6912 132.192 41.3818 132.133 41.0725 132.016C40.7738 131.909 40.3792 131.712 39.8885 131.424L39.5525 131.232C39.2218 131.552 38.8432 131.76 38.4165 131.856C38.0005 131.952 37.4725 132 36.8325 132V130.08ZM45.6005 126.192C45.3232 126.192 45.0938 126.107 44.9125 125.936C44.7418 125.765 44.6565 125.493 44.6565 125.12C44.6565 124.747 44.7418 124.475 44.9125 124.304C45.0938 124.133 45.3232 124.048 45.6005 124.048H45.9205C46.1978 124.048 46.4218 124.133 46.5925 124.304C46.7738 124.475 46.8645 124.747 46.8645 125.12C46.8645 125.493 46.7738 125.765 46.5925 125.936C46.4218 126.107 46.1978 126.192 45.9205 126.192H45.6005ZM43.0725 126.192C42.7952 126.192 42.5658 126.107 42.3845 125.936C42.2138 125.765 42.1285 125.493 42.1285 125.12C42.1285 124.747 42.2138 124.475 42.3845 124.304C42.5658 124.133 42.7952 124.048 43.0725 124.048H43.3925C43.6698 124.048 43.8938 124.133 44.0645 124.304C44.2458 124.475 44.3365 124.747 44.3365 125.12C44.3365 125.493 44.2458 125.765 44.0645 125.936C43.8938 126.107 43.6698 126.192 43.3925 126.192H43.0725ZM44.3365 123.856C44.0592 123.856 43.8298 123.771 43.6485 123.6C43.4778 123.429 43.3925 123.157 43.3925 122.784C43.3925 122.411 43.4778 122.139 43.6485 121.968C43.8298 121.797 44.0592 121.712 44.3365 121.712H44.6565C44.9338 121.712 45.1578 121.797 45.3285 121.968C45.5098 122.139 45.6005 122.411 45.6005 122.784C45.6005 123.157 45.5098 123.429 45.3285 123.6C45.1578 123.771 44.9338 123.856 44.6565 123.856H44.3365Z" fill="#42A7B5"/>
<path id="Vector_17" d="M36.8159 132C35.7385 132 34.9385 131.744 34.4159 131.232C33.8932 130.72 33.6319 129.888 33.6319 128.736V120.16H35.5519V128.416C35.5519 128.896 35.6479 129.216 35.8399 129.376C36.0319 129.525 36.3625 129.6 36.8319 129.6H37.3119V131.52L36.8319 132H36.8159Z" fill="#42A7B5"/>
<path id="Vector_18" d="M25.4429 132.192C24.2802 132.192 23.2989 132.128 22.4989 132C21.7095 131.872 21.0695 131.664 20.5789 131.376C20.0882 131.077 19.7309 130.693 19.5069 130.224C19.2935 129.755 19.1869 129.173 19.1869 128.48C19.1869 128.053 19.2402 127.584 19.3469 127.072C19.4642 126.56 19.6242 126.053 19.8269 125.552L21.3629 126C21.1815 126.363 21.0375 126.715 20.9309 127.056C20.8349 127.387 20.7869 127.685 20.7869 127.952C20.7869 128.261 20.8509 128.523 20.9789 128.736C21.1069 128.939 21.3149 129.104 21.6029 129.232C21.8909 129.36 22.2695 129.456 22.7389 129.52C23.2082 129.573 23.7895 129.6 24.4829 129.6H26.7229C27.4269 129.6 28.0189 129.584 28.4989 129.552C28.9789 129.52 29.3629 129.467 29.6509 129.392C29.9495 129.307 30.1629 129.205 30.2909 129.088C30.4295 128.96 30.4989 128.805 30.4989 128.624C30.4989 128.464 30.4829 128.261 30.4509 128.016C30.4295 127.76 30.3815 127.429 30.3069 127.024L30.0349 125.536L31.7789 125.248L32.0189 126.736C32.0722 127.024 32.1149 127.344 32.1469 127.696C32.1789 128.048 32.1949 128.357 32.1949 128.624C32.1949 129.339 32.0935 129.925 31.8909 130.384C31.6989 130.843 31.3469 131.205 30.8349 131.472C30.3335 131.739 29.6455 131.925 28.7709 132.032C27.9069 132.139 26.7975 132.192 25.4429 132.192ZM26.6909 126.192C26.4135 126.192 26.1842 126.107 26.0029 125.936C25.8322 125.765 25.7469 125.493 25.7469 125.12C25.7469 124.747 25.8322 124.475 26.0029 124.304C26.1842 124.133 26.4135 124.048 26.6909 124.048H27.0109C27.2882 124.048 27.5122 124.133 27.6829 124.304C27.8642 124.475 27.9549 124.747 27.9549 125.12C27.9549 125.493 27.8642 125.765 27.6829 125.936C27.5122 126.107 27.2882 126.192 27.0109 126.192H26.6909ZM24.1629 126.192C23.8855 126.192 23.6562 126.107 23.4749 125.936C23.3042 125.765 23.2189 125.493 23.2189 125.12C23.2189 124.747 23.3042 124.475 23.4749 124.304C23.6562 124.133 23.8855 124.048 24.1629 124.048H24.4829C24.7602 124.048 24.9842 124.133 25.1549 124.304C25.3362 124.475 25.4269 124.747 25.4269 125.12C25.4269 125.493 25.3362 125.765 25.1549 125.936C24.9842 126.107 24.7602 126.192 24.4829 126.192H24.1629Z" fill="#42A7B5"/>
</g>
</g>
</svg>
