<svg width="16" height="16" viewBox="0 0 16 16" fill="none" xmlns="http://www.w3.org/2000/svg">
<g clip-path="url(#clip0_79_274)">
<path d="M5.33325 5.3335H10.6666V10.6668H5.33325V5.3335Z" stroke="#42A7B5"/>
<path d="M10.6667 10.6673L12.6667 10.667C13.7713 10.6668 14.6669 11.5621 14.6671 12.6667C14.6672 13.7712 13.7719 14.6668 12.6674 14.667C11.5628 14.6672 10.6672 13.7719 10.6671 12.6673L10.6667 10.6673Z" stroke="#42A7B5"/>
<path d="M5.33406 10.6673L3.33406 10.667C2.22949 10.6668 1.33391 11.5621 1.33374 12.6667C1.33357 13.7712 2.22886 14.6668 3.33343 14.667C4.43799 14.6672 5.33357 13.7719 5.33374 12.6673L5.33406 10.6673Z" stroke="#42A7B5"/>
<path d="M10.6667 5.33318L12.6667 5.3335C13.7713 5.33367 14.6669 4.43838 14.6671 3.33381C14.6672 2.22924 13.7719 1.33367 12.6674 1.3335C11.5628 1.33332 10.6672 2.22861 10.6671 3.33318L10.6667 5.33318Z" stroke="#42A7B5"/>
<path d="M5.33406 5.33318L3.33406 5.3335C2.22949 5.33367 1.33391 4.43838 1.33374 3.33381C1.33357 2.22924 2.22886 1.33367 3.33343 1.3335C4.43799 1.33332 5.33357 2.22861 5.33374 3.33318L5.33406 5.33318Z" stroke="#42A7B5"/>
</g>
<defs>
<clipPath id="clip0_79_274">
<rect width="16" height="16" rx="5" fill="white"/>
</clipPath>
</defs>
</svg>
