<svg width="20" height="21" viewBox="0 0 20 21" fill="none" xmlns="http://www.w3.org/2000/svg">
<path d="M2.12943 5.93605C2.02507 5.68039 1.73322 5.55772 1.47756 5.66208C1.22189 5.76643 1.09923 6.05828 1.20358 6.31395L1.6665 6.125L2.12943 5.93605ZM12.9892 11.6626L12.7982 11.2005V11.2005L12.9892 11.6626ZM7.43552 11.926C7.58098 11.6913 7.50861 11.3831 7.27389 11.2376C7.03916 11.0921 6.73096 11.1645 6.5855 11.3992L7.01051 11.6626L7.43552 11.926ZM5.40816 13.2991C5.2627 13.5339 5.33507 13.8421 5.5698 13.9875C5.80452 14.133 6.11272 14.0606 6.25818 13.8259L5.83317 13.5625L5.40816 13.2991ZM18.7961 6.31395C18.9004 6.05828 18.7778 5.76643 18.5221 5.66208C18.2665 5.55772 17.9746 5.68039 17.8702 5.93605L18.3332 6.125L18.7961 6.31395ZM15.8332 9.73773L15.4822 9.38162V9.38162L15.8332 9.73773ZM16.7211 11.3951C16.9115 11.595 17.228 11.6027 17.428 11.4123C17.628 11.2219 17.6357 10.9054 17.4452 10.7054L17.0832 11.0502L16.7211 11.3951ZM9.49984 14.4375C9.49984 14.7136 9.72369 14.9375 9.99984 14.9375C10.276 14.9375 10.4998 14.7136 10.4998 14.4375H9.99984H9.49984ZM13.7415 13.8259C13.887 14.0606 14.1952 14.133 14.4299 13.9875C14.6646 13.8421 14.737 13.5339 14.5915 13.2991L14.1665 13.5625L13.7415 13.8259ZM4.52857 10.0826C4.71902 9.8826 4.7113 9.56611 4.51133 9.37566C4.31137 9.18522 3.99488 9.19294 3.80443 9.39291L4.1665 9.73773L4.52857 10.0826ZM2.55443 10.7054C2.36399 10.9054 2.37171 11.2219 2.57168 11.4123C2.77164 11.6027 3.08813 11.595 3.27857 11.3951L2.9165 11.0502L2.55443 10.7054ZM9.99984 12.25V11.75C7.27679 11.75 5.31892 10.3248 4.02022 8.85627C3.3717 8.12294 2.8963 7.38768 2.58324 6.83545C2.42701 6.55985 2.31201 6.33126 2.23675 6.17322C2.19914 6.09424 2.17151 6.03299 2.15368 5.99245C2.14476 5.97218 2.1383 5.9571 2.13426 5.94758C2.13225 5.94281 2.13084 5.93944 2.13003 5.9375C2.12963 5.93654 2.12938 5.93593 2.12928 5.93568C2.12923 5.93556 2.12921 5.93553 2.12924 5.93559C2.12925 5.93562 2.1293 5.93574 2.12931 5.93575C2.12936 5.93589 2.12943 5.93605 1.6665 6.125C1.20358 6.31395 1.20367 6.31416 1.20376 6.31439C1.2038 6.3145 1.20391 6.31475 1.204 6.31497C1.20418 6.3154 1.20439 6.31593 1.20465 6.31655C1.20516 6.31779 1.20582 6.3194 1.20664 6.32138C1.20829 6.32533 1.21055 6.33074 1.21344 6.33757C1.21923 6.35122 1.22751 6.37053 1.23833 6.39512C1.25997 6.4443 1.29175 6.51465 1.33389 6.60315C1.41814 6.78007 1.54402 7.02999 1.71331 7.32861C2.05129 7.92482 2.56548 8.72081 3.27112 9.51873C4.68075 11.1127 6.88955 12.75 9.99984 12.75V12.25ZM12.9892 11.6626L12.7982 11.2005C11.9773 11.5398 11.0475 11.75 9.99984 11.75V12.25V12.75C11.1854 12.75 12.2446 12.5113 13.1801 12.1247L12.9892 11.6626ZM7.01051 11.6626L6.5855 11.3992L5.40816 13.2991L5.83317 13.5625L6.25818 13.8259L7.43552 11.926L7.01051 11.6626ZM18.3332 6.125C17.8702 5.93605 17.8703 5.93596 17.8703 5.93587C17.8703 5.93585 17.8704 5.93577 17.8704 5.93573C17.8704 5.93565 17.8704 5.93559 17.8704 5.93557C17.8705 5.93553 17.8704 5.9356 17.8704 5.93579C17.8702 5.93616 17.8699 5.93699 17.8693 5.93827C17.8683 5.94082 17.8664 5.94517 17.8638 5.95126C17.8587 5.96342 17.8504 5.98251 17.8391 6.00798C17.8165 6.05895 17.7816 6.13544 17.734 6.23328C17.6389 6.4291 17.4938 6.70976 17.2965 7.04219C16.901 7.70865 16.3011 8.57453 15.4822 9.38162L15.8332 9.73773L16.1841 10.0939C17.0807 9.21024 17.7308 8.26975 18.1565 7.55252C18.3698 7.19311 18.5279 6.88759 18.6335 6.67019C18.6864 6.56143 18.7261 6.47455 18.7531 6.4138C18.7666 6.38342 18.7769 6.35955 18.784 6.34274C18.7876 6.33433 18.7904 6.32769 18.7924 6.32287C18.7934 6.32046 18.7942 6.3185 18.7948 6.31701C18.7951 6.31627 18.7954 6.31564 18.7956 6.31513C18.7957 6.31487 18.7958 6.31465 18.7959 6.31445C18.7959 6.31435 18.796 6.31423 18.796 6.31418C18.796 6.31406 18.7961 6.31395 18.3332 6.125ZM15.8332 9.73773L15.4822 9.38162C14.7564 10.0969 13.8652 10.7595 12.7982 11.2005L12.9892 11.6626L13.1801 12.1247C14.3923 11.6237 15.3886 10.8779 16.1841 10.0939L15.8332 9.73773ZM15.8332 9.73773L15.4711 10.0826L16.7211 11.3951L17.0832 11.0502L17.4452 10.7054L16.1952 9.39291L15.8332 9.73773ZM9.99984 12.25H9.49984V14.4375H9.99984H10.4998V12.25H9.99984ZM12.9892 11.6626L12.5642 11.926L13.7415 13.8259L14.1665 13.5625L14.5915 13.2991L13.4142 11.3992L12.9892 11.6626ZM4.1665 9.73773L3.80443 9.39291L2.55443 10.7054L2.9165 11.0502L3.27857 11.3951L4.52857 10.0826L4.1665 9.73773Z" fill="#C4D0D2"/>
</svg>
