<svg width="20" height="20" viewBox="0 0 20 20" fill="none" xmlns="http://www.w3.org/2000/svg">
<path d="M10 1.66659L10 8.33325M7.5 5.83325L10 8.33325L12.5 5.83325" stroke="#2563EB" stroke-width="1.5" stroke-linecap="round" stroke-linejoin="round"/>
<path d="M1.66675 10.8333H4.3003C5.05461 10.8333 5.43176 10.8333 5.76328 10.9857C6.09481 11.1382 6.34026 11.4246 6.83115 11.9973L7.33568 12.5859C7.82657 13.1586 8.07202 13.445 8.40354 13.5974C8.73507 13.7499 9.11222 13.7499 9.86653 13.7499H10.1336C10.8879 13.7499 11.2651 13.7499 11.5966 13.5974C11.9281 13.445 12.1736 13.1586 12.6645 12.5859L13.169 11.9973C13.6599 11.4246 13.9054 11.1382 14.2369 10.9857C14.5684 10.8333 14.9456 10.8333 15.6999 10.8333H18.3334" stroke="#2563EB" stroke-width="1.5" stroke-linecap="round"/>
<path d="M14.1667 1.77246C15.521 1.90567 16.4326 2.20673 17.113 2.88713C18.3334 4.10752 18.3334 6.0717 18.3334 10.0001C18.3334 13.9284 18.3334 15.8926 17.113 17.113C15.8926 18.3334 13.9285 18.3334 10.0001 18.3334C6.07171 18.3334 4.10752 18.3334 2.88714 17.113C1.66675 15.8926 1.66675 13.9284 1.66675 10.0001C1.66675 6.0717 1.66675 4.10752 2.88714 2.88713C3.56753 2.20673 4.47913 1.90567 5.83341 1.77246" stroke="#2563EB" stroke-width="1.5" stroke-linecap="round"/>
</svg>
