<svg width="20" height="20" viewBox="0 0 20 20" fill="none" xmlns="http://www.w3.org/2000/svg">
<g clip-path="url(#clip0_84_843)">
<path d="M16.3015 5.83333C16.492 4.74603 15.6554 3.75 14.5515 3.75H5.44831C4.34444 3.75 3.50776 4.74603 3.69829 5.83333" stroke="#89A2A5" stroke-width="1.5"/>
<path d="M14.5833 3.75008C14.6069 3.53418 14.6187 3.42621 14.6189 3.33704C14.6208 2.48402 13.9783 1.76728 13.1301 1.67626C13.0415 1.66675 12.9329 1.66675 12.7156 1.66675H7.28416C7.06695 1.66675 6.95835 1.66675 6.86969 1.67626C6.02153 1.76728 5.37901 2.48402 5.38086 3.33704C5.38106 3.42621 5.39288 3.53417 5.41653 3.75008" stroke="#89A2A5" stroke-width="1.5"/>
<path d="M12.5 15H7.5" stroke="#89A2A5" stroke-width="1.5" stroke-linecap="round"/>
<path d="M1.98634 11.4941C1.61465 8.85778 1.42881 7.53963 2.21868 6.68644C3.00855 5.83325 4.41473 5.83325 7.22708 5.83325H12.7731C15.5854 5.83325 16.9916 5.83325 17.7815 6.68644C18.5714 7.53963 18.3855 8.85778 18.0138 11.4941L17.6613 13.9941C17.3699 16.0615 17.2241 17.0952 16.4765 17.7142C15.7288 18.3333 14.6261 18.3333 12.4206 18.3333H7.57955C5.37409 18.3333 4.27135 18.3333 3.5237 17.7142C2.77604 17.0952 2.6303 16.0615 2.33882 13.9941L1.98634 11.4941Z" stroke="#89A2A5" stroke-width="1.5"/>
</g>
<defs>
<clipPath id="clip0_84_843">
<rect width="20" height="20" fill="white"/>
</clipPath>
</defs>
</svg>
