<svg width="20" height="20" viewBox="0 0 20 20" fill="none" xmlns="http://www.w3.org/2000/svg">
<path d="M7.50016 9.99984C7.50016 10.4601 7.12707 10.8332 6.66683 10.8332C6.20659 10.8332 5.8335 10.4601 5.8335 9.99984C5.8335 9.5396 6.20659 9.1665 6.66683 9.1665C7.12707 9.1665 7.50016 9.5396 7.50016 9.99984Z" fill="#C4D0D2"/>
<path d="M10.8332 9.99984C10.8332 10.4601 10.4601 10.8332 9.99984 10.8332C9.5396 10.8332 9.1665 10.4601 9.1665 9.99984C9.1665 9.5396 9.5396 9.1665 9.99984 9.1665C10.4601 9.1665 10.8332 9.5396 10.8332 9.99984Z" fill="#C4D0D2"/>
<path d="M12.5 1.6665V18.3332" stroke="#C4D0D2" stroke-linecap="round"/>
<path d="M18.3332 10.0002C18.3332 13.1429 18.3332 14.7142 17.3569 15.6905C16.4709 16.5764 15.0951 16.6585 12.4998 16.6661M9.99984 3.3335H8.33317C5.19047 3.3335 3.61913 3.3335 2.64281 4.30981C1.6665 5.28612 1.6665 6.85747 1.6665 10.0002C1.6665 13.1429 1.6665 14.7142 2.64281 15.6905C3.61913 16.6668 5.19047 16.6668 8.33317 16.6668H9.99984M12.4998 3.33427C15.0951 3.34187 16.4709 3.4239 17.3569 4.30981C17.9012 4.85412 18.142 5.5834 18.2486 6.66683" stroke="#C4D0D2" stroke-linecap="round"/>
</svg>
