<svg width="20" height="20" viewBox="0 0 20 20" fill="none" xmlns="http://www.w3.org/2000/svg">
<path d="M3.33325 18.3333H16.6666" stroke="#F59E0B" stroke-width="1.5" stroke-linecap="round"/>
<path d="M11.5733 3.05252L12.1912 2.4346C13.215 1.4108 14.8749 1.4108 15.8987 2.4346C16.9225 3.4584 16.9225 5.11832 15.8987 6.14212L15.2808 6.76004M11.5733 3.05252C11.5733 3.05252 11.6505 4.3656 12.8091 5.5242C13.9677 6.6828 15.2808 6.76004 15.2808 6.76004M11.5733 3.05252L5.89247 8.73335C5.50769 9.11812 5.31531 9.31051 5.14985 9.52264C4.95468 9.77287 4.78734 10.0436 4.65081 10.3301C4.53507 10.573 4.44904 10.8311 4.27696 11.3473L3.54779 13.5348M3.54779 13.5348L3.36955 14.0695C3.28487 14.3236 3.35099 14.6036 3.54034 14.793C3.72969 14.9823 4.00977 15.0485 4.26381 14.9638L4.79853 14.7855L6.98604 14.0564C7.50227 13.8843 7.76038 13.7983 8.00324 13.6825C8.28971 13.546 8.56046 13.3787 8.8107 13.1835C9.02282 13.018 9.21521 12.8256 9.59999 12.4409L15.2808 6.76004M4.79853 14.7855L3.54779 13.5348" stroke="#F59E0B" stroke-width="1.5"/>
</svg>
