<svg preserveAspectRatio="none" width="100%" height="100%" overflow="visible" style="display: block;" viewBox="0 0 20 20" fill="none" xmlns="http://www.w3.org/2000/svg">
<path id="Vector" fill-rule="evenodd" clip-rule="evenodd" d="M0 10C0 5.28595 0 2.92893 1.46447 1.46447C2.92893 0 5.28595 0 10 0C14.714 0 17.0711 0 18.5355 1.46447C20 2.92893 20 5.28595 20 10C20 14.714 20 17.0711 18.5355 18.5355C17.0711 20 14.714 20 10 20C5.28595 20 2.92893 20 1.46447 18.5355C0 17.0711 0 14.714 0 10ZM14.0303 7.53033C14.3232 7.23744 14.3232 6.76256 14.0303 6.46967C13.7374 6.17678 13.2626 6.17678 12.9697 6.46967L9.96967 9.46967C9.67678 9.76256 9.67678 10.2374 9.96967 10.5303L12.9697 13.5303C13.2626 13.8232 13.7374 13.8232 14.0303 13.5303C14.3232 13.2374 14.3232 12.7626 14.0303 12.4697L11.5607 10L14.0303 7.53033ZM10.0303 6.46967C10.3232 6.76256 10.3232 7.23744 10.0303 7.53033L7.56066 10L10.0303 12.4697C10.3232 12.7626 10.3232 13.2374 10.0303 13.5303C9.73744 13.8232 9.26256 13.8232 8.96967 13.5303L5.96967 10.5303C5.67678 10.2374 5.67678 9.76256 5.96967 9.46967L8.96967 6.46967C9.26256 6.17678 9.73744 6.17678 10.0303 6.46967Z" fill="#42A7B5"/>
</svg>
