<svg width="16" height="16" viewBox="0 0 16 16" fill="none" xmlns="http://www.w3.org/2000/svg">
<path d="M4.66659 10.0002C4.66659 10.3684 4.36811 10.6668 3.99992 10.6668C3.63173 10.6668 3.33325 10.3684 3.33325 10.0002C3.33325 9.63197 3.63173 9.3335 3.99992 9.3335C4.36811 9.3335 4.66659 9.63197 4.66659 10.0002Z" fill="#42A7B5"/>
<path d="M6.66659 10.0002C6.66659 10.3684 6.36811 10.6668 5.99992 10.6668C5.63173 10.6668 5.33325 10.3684 5.33325 10.0002C5.33325 9.63197 5.63173 9.3335 5.99992 9.3335C6.36811 9.3335 6.66659 9.63197 6.66659 10.0002Z" fill="#42A7B5"/>
<path d="M1.33325 10.0002C1.33325 8.74308 1.33325 8.11454 1.72378 7.72402C2.1143 7.3335 2.74284 7.3335 3.99992 7.3335H11.9999C13.257 7.3335 13.8855 7.3335 14.2761 7.72402C14.6666 8.11454 14.6666 8.74308 14.6666 10.0002C14.6666 11.2572 14.6666 11.8858 14.2761 12.2763C13.8855 12.6668 13.257 12.6668 11.9999 12.6668H3.99992C2.74284 12.6668 2.1143 12.6668 1.72378 12.2763C1.33325 11.8858 1.33325 11.2572 1.33325 10.0002Z" stroke="#42A7B5"/>
<path d="M4.66667 7.33317L2 2.6665" stroke="#42A7B5" stroke-linecap="round"/>
<path d="M11.3333 7.33317L14 2.6665" stroke="#42A7B5" stroke-linecap="round"/>
<path d="M9.33325 10L11.9999 10" stroke="#42A7B5" stroke-linecap="round"/>
<path d="M11.4449 3.59818C10.8944 2.26873 9.58431 1.3335 8.05584 1.3335C6.52736 1.3335 5.21732 2.26873 4.66675 3.59818" stroke="#42A7B5" stroke-linecap="round"/>
<path d="M9.97633 4.43874C9.73374 3.60738 8.96588 3 8.05616 3C7.14644 3 6.37858 3.60738 6.13599 4.43874" stroke="#42A7B5" stroke-linecap="round"/>
<path d="M8.72274 4.66667C8.72274 5.03486 8.42426 5.33333 8.05607 5.33333C7.68788 5.33333 7.3894 5.03486 7.3894 4.66667C7.3894 4.29848 7.68788 4 8.05607 4C8.42426 4 8.72274 4.29848 8.72274 4.66667Z" fill="#42A7B5"/>
</svg>
