<svg preserveAspectRatio="none" width="100%" height="100%" overflow="visible" style="display: block;" viewBox="0 0 16 16" fill="none" xmlns="http://www.w3.org/2000/svg">
<g id="Outline / Settings, Fine Tuning / Widget 6">
<g id="Vector">
<path fill-rule="evenodd" clip-rule="evenodd" d="M1.16667 4.33333C1.16667 2.58443 2.58443 1.16667 4.33333 1.16667C6.08224 1.16667 7.5 2.58443 7.5 4.33333V6.11111C7.5 6.12529 7.50003 6.13954 7.50006 6.15385C7.50038 6.31557 7.50071 6.48426 7.46025 6.63529C7.35237 7.0379 7.0379 7.35237 6.63529 7.46025C6.48426 7.50071 6.31557 7.50038 6.15385 7.50006C6.13954 7.50003 6.12529 7.5 6.11111 7.5H4.33333C2.58443 7.5 1.16667 6.08224 1.16667 4.33333ZM4.33333 2.16667C3.13672 2.16667 2.16667 3.13672 2.16667 4.33333C2.16667 5.52995 3.13672 6.5 4.33333 6.5H6.11111C6.21897 6.5 6.28319 6.49988 6.33142 6.49768C6.36177 6.4963 6.37486 6.49441 6.37809 6.49388C6.43429 6.47821 6.47821 6.43429 6.49388 6.37809C6.49441 6.37486 6.4963 6.36177 6.49768 6.33142C6.49988 6.28319 6.5 6.21897 6.5 6.11111V4.33333C6.5 3.13672 5.52995 2.16667 4.33333 2.16667Z" fill="#252525"/>
<path fill-rule="evenodd" clip-rule="evenodd" d="M9.84615 8.49994C9.86046 8.49997 9.87471 8.5 9.88889 8.5H11.6667C13.4156 8.5 14.8333 9.91777 14.8333 11.6667C14.8333 13.4156 13.4156 14.8333 11.6667 14.8333C9.91777 14.8333 8.5 13.4156 8.5 11.6667V9.88889C8.5 9.87471 8.49997 9.86046 8.49994 9.84615C8.49962 9.68443 8.49929 9.51574 8.53975 9.36471C8.64763 8.9621 8.9621 8.64763 9.36471 8.53975C9.51574 8.49929 9.68443 8.49962 9.84615 8.49994ZM9.62191 9.50612C9.56571 9.52179 9.52179 9.56571 9.50612 9.62191C9.50559 9.62514 9.50371 9.63823 9.50232 9.66858C9.50012 9.71681 9.5 9.78103 9.5 9.88889V11.6667C9.5 12.8633 10.4701 13.8333 11.6667 13.8333C12.8633 13.8333 13.8333 12.8633 13.8333 11.6667C13.8333 10.4701 12.8633 9.5 11.6667 9.5H9.88889C9.78103 9.5 9.71681 9.50012 9.66858 9.50232C9.63823 9.50371 9.62514 9.50559 9.62191 9.50612Z" fill="#252525"/>
<path fill-rule="evenodd" clip-rule="evenodd" d="M6.33048 9.50742C6.2444 9.50039 6.12827 9.5 5.93333 9.5H4.33333C3.13672 9.5 2.16667 10.4701 2.16667 11.6667C2.16667 12.8633 3.13672 13.8333 4.33333 13.8333C5.52995 13.8333 6.5 12.8633 6.5 11.6667V10.0667C6.5 9.87173 6.49961 9.7556 6.49258 9.66952C6.48829 9.61698 6.48262 9.59489 6.48078 9.58897C6.4651 9.55922 6.44078 9.5349 6.41103 9.51922C6.40511 9.51738 6.38302 9.51172 6.33048 9.50742ZM6.41275 9.51982L6.41174 9.51944ZM6.48018 9.58725L6.48055 9.58824ZM6.41191 8.51074C6.554 8.52235 6.70945 8.54893 6.86299 8.62716C7.08251 8.73901 7.26099 8.91749 7.37284 9.13701C7.45107 9.29055 7.47765 9.446 7.48926 9.58809C7.50002 9.71987 7.50001 9.87753 7.5 10.0492L7.5 11.6667C7.5 13.4156 6.08224 14.8333 4.33333 14.8333C2.58443 14.8333 1.16667 13.4156 1.16667 11.6667C1.16667 9.91777 2.58443 8.5 4.33333 8.5L5.95081 8.5C6.12247 8.49999 6.28012 8.49998 6.41191 8.51074Z" fill="#252525"/>
<path fill-rule="evenodd" clip-rule="evenodd" d="M8.5 4.33333C8.5 2.58443 9.91777 1.16667 11.6667 1.16667C13.4156 1.16667 14.8333 2.58443 14.8333 4.33333C14.8333 6.08224 13.4156 7.5 11.6667 7.5H9.76191C9.75582 7.5 9.7497 7.50001 9.74357 7.50001C9.67428 7.50007 9.60231 7.50013 9.53604 7.49266C8.99515 7.43172 8.56828 7.00485 8.50734 6.46396C8.49987 6.39768 8.49993 6.32572 8.49999 6.25643C8.5 6.25029 8.5 6.24418 8.5 6.2381V4.33333ZM11.6667 2.16667C10.4701 2.16667 9.5 3.13672 9.5 4.33333V6.2381C9.5 6.28426 9.50002 6.31173 9.50043 6.33247C9.50069 6.34565 9.50104 6.3514 9.50114 6.35277C9.51013 6.42941 9.57059 6.48987 9.64723 6.49886C9.64859 6.49896 9.65433 6.49931 9.66753 6.49957C9.68827 6.49998 9.71575 6.5 9.76191 6.5H11.6667C12.8633 6.5 13.8333 5.52995 13.8333 4.33333C13.8333 3.13672 12.8633 2.16667 11.6667 2.16667Z" fill="#252525"/>
</g>
</g>
</svg>
